HIERARCHY
ROOT joint_Root
{
	OFFSET 0.0 0.0 0.0
	CHANNELS 6 Xposition Yposition Zposition Zrotation Xrotation Yrotation 
	JOINT Hips
	{
		OFFSET -0.726466 93.3139 -2.00062
		CHANNELS 6 Xposition Yposition Zposition Zrotation Xrotation Yrotation 
		JOINT Spine
		{
			OFFSET 15.7357 0.0 0.0
			CHANNELS 6 Xposition Yposition Zposition Zrotation Xrotation Yrotation 
			JOINT Chest
			{
				OFFSET 8.98455 -0.406207 0.0
				CHANNELS 6 Xposition Yposition Zposition Zrotation Xrotation Yrotation 
				JOINT Neck
				{
					OFFSET 16.3773 0.0 0.0
					CHANNELS 6 Xposition Yposition Zposition Zrotation Xrotation Yrotation 
					JOINT Head
					{
						OFFSET 6.45672 0.0 0.0
						CHANNELS 6 Xposition Yposition Zposition Zrotation Xrotation Yrotation 
						End Site
						{
							OFFSET 0.0 0.0 0.0
						}
					}
				}
				JOINT Shoulder_L
				{
					OFFSET 12.9942 -0.242716 4.98039
					CHANNELS 6 Xposition Yposition Zposition Zrotation Xrotation Yrotation 
					JOINT UpperArm_L
					{
						OFFSET 5.34809 0.0 0.0
						CHANNELS 6 Xposition Yposition Zposition Zrotation Xrotation Yrotation 
						JOINT LowerArm_L
						{
							OFFSET 24.3286 1.87007e-05 0.0
							CHANNELS 6 Xposition Yposition Zposition Zrotation Xrotation Yrotation 
							JOINT Hand_L
							{
								OFFSET 22.2916 0.0 0.0
								CHANNELS 6 Xposition Yposition Zposition Zrotation Xrotation Yrotation 
								End Site
								{
									OFFSET 0.0 0.0 0.0
								}
							}
						}
					}
				}
				JOINT Shoulder_R
				{
					OFFSET 12.9945 -0.242716 -4.98039
					CHANNELS 6 Xposition Yposition Zposition Zrotation Xrotation Yrotation 
					JOINT UpperArm_R
					{
						OFFSET -5.34813 0.0 0.0
						CHANNELS 6 Xposition Yposition Zposition Zrotation Xrotation Yrotation 
						JOINT LowerArm_R
						{
							OFFSET -24.3289 0.000322201 0.0
							CHANNELS 6 Xposition Yposition Zposition Zrotation Xrotation Yrotation 
							JOINT Hand_R
							{
								OFFSET -22.2915 -0.000108084 0.0
								CHANNELS 6 Xposition Yposition Zposition Zrotation Xrotation Yrotation 
								End Site
								{
									OFFSET 0.0 0.0 0.0
								}
							}
						}
					}
				}
			}
		}
		JOINT UpperLeg_L
		{
			OFFSET -2.19248 -6.46944 0.0
			CHANNELS 6 Xposition Yposition Zposition Zrotation Xrotation Yrotation 
			JOINT LowerLeg_L
			{
				OFFSET 39.0811 0.0 -1.23785e-05
				CHANNELS 6 Xposition Yposition Zposition Zrotation Xrotation Yrotation 
				JOINT Foot_L
				{
					OFFSET 40.9854 0.0 -1.26872e-05
					CHANNELS 6 Xposition Yposition Zposition Zrotation Xrotation Yrotation 
					JOINT Toes_L
					{
						OFFSET 11.7543 0.0 0.0
						CHANNELS 6 Xposition Yposition Zposition Zrotation Xrotation Yrotation 
						End Site
						{
							OFFSET 0.0 0.0 0.0
						}
					}
				}
			}
		}
		JOINT UpperLeg_R
		{
			OFFSET -2.19251 6.46944 0.0
			CHANNELS 6 Xposition Yposition Zposition Zrotation Xrotation Yrotation 
			JOINT LowerLeg_R
			{
				OFFSET -39.0811 -0.00228153 -0.0401928
				CHANNELS 6 Xposition Yposition Zposition Zrotation Xrotation Yrotation 
				JOINT Foot_R
				{
					OFFSET -40.9854 0.0 0.0
					CHANNELS 6 Xposition Yposition Zposition Zrotation Xrotation Yrotation 
					JOINT Toes_R
					{
						OFFSET -11.7543 0.0 0.0
						CHANNELS 6 Xposition Yposition Zposition Zrotation Xrotation Yrotation 
						End Site
						{
							OFFSET 0.0 0.0 0.0
						}
					}
				}
			}
		}
	}
}
MOTION
Frames:	5
Frame Time:	0.0333333
0.000000 0.000000 0.000000 0.000000 0.000000 -0.000000 140.714000 88.950100 -199.010000 90.685200 -3.498530 1.303200 15.735700 0.000005 -0.000001 103.277000 82.516000 -103.349000 8.984550 -0.406207 -0.000000 6.813300 3.426830 -0.347963 16.377300 -0.000001 -0.000001 1.554430 -3.285360 0.773584 6.456720 -0.000001 -0.000000 1.038880 -6.776750 -2.473940 12.994200 -0.242716 4.980390 -88.901300 -2.960320 -69.626300 5.348090 -0.000007 -0.000001 -73.304800 15.216000 -0.544732 24.328600 0.000019 0.000005 1.600170 9.609760 -9.501240 22.291600 -0.000001 0.000005 10.903100 5.349890 -1.375510 12.994500 -0.242716 -4.980390 88.523000 5.183990 -74.073000 -5.348130 -0.000001 -0.000004 -51.394500 36.517400 -44.224600 -24.328900 0.000322 -0.000009 2.041470 2.961910 -34.613900 -22.291500 -0.000108 -0.000004 15.636800 5.443160 -4.397200 -2.192480 -6.469440 -0.000000 -179.850000 -8.979390 -28.080600 39.081100 -0.000007 -0.000012 0.018346 -0.043210 23.004400 40.985400 -0.000006 -0.000013 0.443843 -3.319730 -50.967300 11.754300 -0.000000 0.000003 -0.004281 -0.054336 -18.787200 -2.192510 6.469440 -0.000001 175.343000 9.839450 -171.349000 -39.081100 -0.002282 -0.040193 -0.006547 0.020084 26.140200 -40.985400 0.000008 0.000006 7.759250 6.243440 -75.392600 -11.754300 -0.000006 -0.000006 -0.021144 -0.173547 -23.665800
0.000000 0.000000 0.000000 0.000000 0.000000 -0.000000 141.583000 88.667900 -195.197000 91.384900 -4.419920 1.646240 15.735700 0.000005 -0.000001 104.069000 82.560900 -104.587000 8.984550 -0.406207 -0.000000 6.692630 3.609990 -1.247320 16.377300 -0.000001 -0.000001 1.435530 -3.077690 0.880697 6.456720 -0.000001 -0.000000 1.154320 -6.638500 -2.412920 12.994200 -0.242716 4.980390 -89.034700 -2.566670 -69.380400 5.348090 -0.000007 -0.000001 -72.888100 14.674200 0.245656 24.328600 0.000019 0.000005 1.548820 10.225000 -8.660380 22.291600 -0.000001 0.000005 11.250800 5.331580 -0.832058 12.994500 -0.242716 -4.980390 88.415000 5.587880 -74.136600 -5.348130 -0.000001 -0.000004 -52.438400 35.822600 -42.802500 -24.328900 0.000322 -0.000009 2.135840 3.279040 -33.120200 -22.291500 -0.000108 -0.000004 16.031300 5.439680 -4.274940 -2.192480 -6.469440 -0.000000 179.822000 -7.478180 -28.607400 39.081100 -0.000007 -0.000012 -0.003603 0.006483 29.069500 40.985400 -0.000006 -0.000013 -0.099592 -5.657920 -52.373700 11.754300 -0.000000 0.000003 -0.003252 -0.043425 -18.342900 -2.192510 6.469440 -0.000001 173.423000 8.594910 -170.234000 -39.081100 -0.002282 -0.040193 0.004311 -0.001840 28.678500 -40.985400 0.000008 0.000006 7.658600 6.681610 -73.797700 -11.754300 -0.000006 -0.000006 -0.044005 -0.275694 -27.910200
0.000000 0.000000 0.000000 0.000000 0.000000 -0.000000 142.439000 88.627000 -191.069000 91.884800 -4.844310 2.521240 15.735700 0.000005 -0.000001 104.748000 82.429300 -105.635000 8.984550 -0.406207 -0.000000 6.918920 3.848300 -2.004070 16.377300 -0.000001 -0.000001 1.460210 -3.048390 0.832002 6.456720 -0.000001 -0.000000 1.224660 -6.726760 -2.044460 12.994200 -0.242716 4.980390 -89.031900 -2.580120 -69.424600 5.348090 -0.000007 -0.000001 -73.188900 14.781400 0.259097 24.328600 0.000019 0.000005 1.455040 10.029900 -8.297420 22.291600 -0.000001 0.000005 10.685100 5.329280 -0.764921 12.994500 -0.242716 -4.980390 88.407700 5.623560 -74.163000 -5.348130 -0.000001 -0.000004 -55.557000 34.721200 -39.121900 -24.328900 0.000322 -0.000009 2.335630 3.833660 -31.396500 -22.291500 -0.000108 -0.000004 16.528900 5.434910 -4.108400 -2.192480 -6.469440 -0.000000 179.479000 -6.008250 -27.164400 39.081100 -0.000007 -0.000012 -0.072263 0.110229 33.248000 40.985400 -0.000006 -0.000013 -0.713861 -6.991290 -54.875600 11.754300 -0.000000 0.000003 -0.001267 -0.019134 -17.354900 -2.192510 6.469440 -0.000001 172.269000 6.933060 -169.619000 -39.081100 -0.002282 -0.040193 0.033409 -0.046860 32.725200 -40.985400 0.000008 0.000006 8.036860 5.650580 -69.695500 -11.754300 -0.000006 -0.000006 -0.090684 -0.420831 -34.093900
0.000000 0.000000 0.000000 0.000000 0.000000 -0.000000 143.261000 88.785000 -186.873000 91.587700 -5.294070 3.142890 15.735700 0.000005 -0.000001 106.022000 82.458600 -106.900000 8.984550 -0.406207 -0.000000 6.777140 4.156980 -2.001320 16.377300 -0.000001 -0.000001 1.819530 -2.804230 0.647288 6.456720 -0.000001 -0.000000 1.616690 -6.716410 -2.060390 12.994200 -0.242716 4.980390 -89.025800 -2.561030 -69.164900 5.348090 -0.000007 -0.000001 -73.921300 15.795700 -0.280428 24.328600 0.000019 0.000005 1.433730 9.630280 -8.508900 22.291600 -0.000001 0.000005 9.081930 5.326420 -0.683805 12.994500 -0.242716 -4.980390 88.505400 5.307110 -74.246900 -5.348130 -0.000001 -0.000004 -58.864000 33.969200 -34.648000 -24.328900 0.000322 -0.000009 1.877750 3.389350 -29.017100 -22.291500 -0.000108 -0.000004 17.001700 5.427890 -3.867610 -2.192480 -6.469440 -0.000000 179.503000 -5.653920 -25.080900 39.081100 -0.000007 -0.000012 -0.154579 0.210522 36.288900 40.985400 -0.000006 -0.000013 -1.035760 -7.845190 -58.746300 11.754300 -0.000000 0.000003 0.000070 0.001180 -16.529500 -2.192510 6.469440 -0.000001 172.599000 5.267080 -171.034000 -39.081100 -0.002282 -0.040193 0.072092 -0.085441 38.846400 -40.985400 0.000008 0.000006 9.458370 3.737260 -62.181300 -11.754300 -0.000006 -0.000006 -0.173301 -0.598797 -42.055000
0.000000 0.000000 0.000000 0.000000 0.000000 -0.000000 144.017000 89.113800 -182.951000 91.117200 -5.100730 3.963750 15.735700 0.000005 -0.000001 105.157000 82.481400 -105.903000 8.984550 -0.406207 -0.000000 6.786260 3.925340 -1.723510 16.377300 -0.000001 -0.000001 2.192520 -2.417490 0.485104 6.456720 -0.000001 -0.000000 2.223310 -6.416050 -2.271240 12.994200 -0.242716 4.980390 -89.063000 -2.423770 -68.856400 5.348090 -0.000007 -0.000001 -74.687900 17.365000 -1.373670 24.328600 0.000019 0.000005 1.514040 9.051800 -9.537720 22.291600 -0.000001 0.000005 7.386490 5.324940 -0.639041 12.994500 -0.242716 -4.980390 88.580000 5.050710 -74.274500 -5.348130 -0.000001 -0.000004 -61.427500 33.776800 -30.688900 -24.328900 0.000322 -0.000009 1.177980 2.470820 -25.513700 -22.291500 -0.000108 -0.000004 16.646300 5.421010 -3.633690 -2.192480 -6.469440 -0.000000 179.500000 -5.850100 -21.956200 39.081100 -0.000007 -0.000012 -0.195059 0.253923 37.531300 40.985400 -0.000006 -0.000013 -0.857696 -7.504640 -62.200600 11.754300 -0.000000 0.000003 0.000578 0.012408 -16.068100 -2.192510 6.469440 -0.000001 172.901000 5.129940 -174.443000 -39.081100 -0.002282 -0.040193 0.097615 -0.087313 47.220800 -40.985400 0.000008 0.000006 9.206060 2.382270 -52.182900 -11.754300 -0.000006 -0.000006 -0.160130 -0.574357 -40.929400
